REM MD5 f88f190f373e3ed8dec9202dbbf8757e
FILE "Master of Monsters - Akatsuki no Kenja-tachi (Japan).bin" BINARY
  TRACK 01 MODE2/2352
    INDEX 01 00:00:00
  TRACK 02 AUDIO
    INDEX 00 17:10:17
    INDEX 01 17:12:17
  TRACK 03 AUDIO
    INDEX 00 19:10:15
    INDEX 01 19:12:15
  TRACK 04 AUDIO
    INDEX 00 20:56:57
    INDEX 01 20:58:57
  TRACK 05 AUDIO
    INDEX 00 22:32:17
    INDEX 01 22:34:17
  TRACK 06 AUDIO
    INDEX 00 23:52:35
    INDEX 01 23:54:35
REM LEADOUT 27:02:63
